<mxfile host="app.diagrams.net" modified="2024-05-02T18:59:34.819Z" agent="Mozilla/5.0 (Windows NT 10.0; Win64; x64) AppleWebKit/537.36 (KHTML, like Gecko) Chrome/124.0.0.0 Safari/537.36 Edg/124.0.0.0" etag="a9REE1DafkiiLhHLtcDI" version="24.1.0" type="github">
  <diagram name="Page-1" id="EPXhZVxHOifL6m_WoBcw">
    <mxGraphModel dx="1183" dy="497" grid="1" gridSize="10" guides="1" tooltips="1" connect="1" arrows="1" fold="1" page="1" pageScale="1" pageWidth="850" pageHeight="1100" math="0" shadow="0">
      <root>
        <mxCell id="0" />
        <mxCell id="1" parent="0" />
        <mxCell id="ZYKIocZ3-cccbRaxbDPB-4" value="send card" style="edgeStyle=orthogonalEdgeStyle;rounded=0;orthogonalLoop=1;jettySize=auto;html=1;" parent="1" source="ZYKIocZ3-cccbRaxbDPB-1" target="ZYKIocZ3-cccbRaxbDPB-3" edge="1">
          <mxGeometry relative="1" as="geometry" />
        </mxCell>
        <mxCell id="ZYKIocZ3-cccbRaxbDPB-1" value="Job Service" style="rounded=0;whiteSpace=wrap;html=1;" parent="1" vertex="1">
          <mxGeometry x="290" y="230" width="140" height="50" as="geometry" />
        </mxCell>
        <mxCell id="ZYKIocZ3-cccbRaxbDPB-8" value="job-request" style="edgeStyle=orthogonalEdgeStyle;rounded=0;orthogonalLoop=1;jettySize=auto;html=1;exitX=0;exitY=0.5;exitDx=0;exitDy=0;entryX=0.25;entryY=0;entryDx=0;entryDy=0;" parent="1" source="ZYKIocZ3-cccbRaxbDPB-3" target="ZYKIocZ3-cccbRaxbDPB-7" edge="1">
          <mxGeometry relative="1" as="geometry" />
        </mxCell>
        <mxCell id="ZYKIocZ3-cccbRaxbDPB-3" value="KAFKA" style="whiteSpace=wrap;html=1;rounded=0;" parent="1" vertex="1">
          <mxGeometry x="300" y="360" width="120" height="60" as="geometry" />
        </mxCell>
        <mxCell id="ZYKIocZ3-cccbRaxbDPB-13" style="edgeStyle=orthogonalEdgeStyle;rounded=0;orthogonalLoop=1;jettySize=auto;html=1;" parent="1" source="ZYKIocZ3-cccbRaxbDPB-5" target="ZYKIocZ3-cccbRaxbDPB-1" edge="1">
          <mxGeometry relative="1" as="geometry" />
        </mxCell>
        <mxCell id="ZYKIocZ3-cccbRaxbDPB-5" value="JOBS" style="whiteSpace=wrap;html=1;rounded=0;" parent="1" vertex="1">
          <mxGeometry x="300" y="80" width="120" height="60" as="geometry" />
        </mxCell>
        <mxCell id="ZYKIocZ3-cccbRaxbDPB-11" value="job-response" style="edgeStyle=orthogonalEdgeStyle;rounded=0;orthogonalLoop=1;jettySize=auto;html=1;exitX=0.75;exitY=0;exitDx=0;exitDy=0;entryX=0.304;entryY=1.005;entryDx=0;entryDy=0;entryPerimeter=0;" parent="1" source="ZYKIocZ3-cccbRaxbDPB-7" target="ZYKIocZ3-cccbRaxbDPB-3" edge="1">
          <mxGeometry relative="1" as="geometry" />
        </mxCell>
        <mxCell id="ZYKIocZ3-cccbRaxbDPB-7" value="Job Processor A" style="whiteSpace=wrap;html=1;rounded=0;" parent="1" vertex="1">
          <mxGeometry x="250" y="550" width="120" height="60" as="geometry" />
        </mxCell>
        <mxCell id="ZYKIocZ3-cccbRaxbDPB-9" value="job-request" style="edgeStyle=orthogonalEdgeStyle;rounded=0;orthogonalLoop=1;jettySize=auto;html=1;exitX=1.01;exitY=0.39;exitDx=0;exitDy=0;entryX=0.25;entryY=0;entryDx=0;entryDy=0;exitPerimeter=0;" parent="1" source="ZYKIocZ3-cccbRaxbDPB-3" target="ZYKIocZ3-cccbRaxbDPB-10" edge="1">
          <mxGeometry relative="1" as="geometry">
            <mxPoint x="500" y="420" as="sourcePoint" />
          </mxGeometry>
        </mxCell>
        <mxCell id="ZYKIocZ3-cccbRaxbDPB-10" value="Job Processor B" style="whiteSpace=wrap;html=1;rounded=0;" parent="1" vertex="1">
          <mxGeometry x="440" y="550" width="120" height="60" as="geometry" />
        </mxCell>
        <mxCell id="ZYKIocZ3-cccbRaxbDPB-12" value="job-response" style="edgeStyle=orthogonalEdgeStyle;rounded=0;orthogonalLoop=1;jettySize=auto;html=1;entryX=0.888;entryY=1.018;entryDx=0;entryDy=0;entryPerimeter=0;" parent="1" source="ZYKIocZ3-cccbRaxbDPB-10" target="ZYKIocZ3-cccbRaxbDPB-3" edge="1">
          <mxGeometry relative="1" as="geometry" />
        </mxCell>
        <mxCell id="CJaa9tunB96Toe59HpSa-1" value="send card" style="edgeStyle=orthogonalEdgeStyle;rounded=0;orthogonalLoop=1;jettySize=auto;html=1;entryX=0.25;entryY=0;entryDx=0;entryDy=0;" edge="1" parent="1" target="CJaa9tunB96Toe59HpSa-4">
          <mxGeometry relative="1" as="geometry">
            <mxPoint x="940" y="300" as="sourcePoint" />
          </mxGeometry>
        </mxCell>
        <mxCell id="CJaa9tunB96Toe59HpSa-2" value="Job Service" style="rounded=0;whiteSpace=wrap;html=1;" vertex="1" parent="1">
          <mxGeometry x="900" y="260" width="140" height="50" as="geometry" />
        </mxCell>
        <mxCell id="CJaa9tunB96Toe59HpSa-3" value="job-request" style="edgeStyle=orthogonalEdgeStyle;rounded=0;orthogonalLoop=1;jettySize=auto;html=1;exitX=0;exitY=0.5;exitDx=0;exitDy=0;entryX=0.022;entryY=0.63;entryDx=0;entryDy=0;entryPerimeter=0;" edge="1" parent="1" source="CJaa9tunB96Toe59HpSa-4" target="CJaa9tunB96Toe59HpSa-8">
          <mxGeometry relative="1" as="geometry">
            <mxPoint x="890" y="719" as="targetPoint" />
            <Array as="points">
              <mxPoint x="790" y="420" />
              <mxPoint x="790" y="720" />
              <mxPoint x="910" y="720" />
              <mxPoint x="910" y="718" />
            </Array>
          </mxGeometry>
        </mxCell>
        <mxCell id="CJaa9tunB96Toe59HpSa-4" value="QUEUE" style="whiteSpace=wrap;html=1;rounded=0;" vertex="1" parent="1">
          <mxGeometry x="910" y="390" width="120" height="60" as="geometry" />
        </mxCell>
        <mxCell id="CJaa9tunB96Toe59HpSa-5" style="edgeStyle=orthogonalEdgeStyle;rounded=0;orthogonalLoop=1;jettySize=auto;html=1;" edge="1" parent="1" source="CJaa9tunB96Toe59HpSa-6" target="CJaa9tunB96Toe59HpSa-2">
          <mxGeometry relative="1" as="geometry" />
        </mxCell>
        <mxCell id="CJaa9tunB96Toe59HpSa-6" value="JOBS" style="whiteSpace=wrap;html=1;rounded=0;" vertex="1" parent="1">
          <mxGeometry x="910" y="110" width="120" height="60" as="geometry" />
        </mxCell>
        <mxCell id="CJaa9tunB96Toe59HpSa-7" value="job-response" style="edgeStyle=orthogonalEdgeStyle;rounded=0;orthogonalLoop=1;jettySize=auto;html=1;exitX=1;exitY=0.5;exitDx=0;exitDy=0;" edge="1" parent="1" source="CJaa9tunB96Toe59HpSa-8">
          <mxGeometry relative="1" as="geometry">
            <mxPoint x="1030" y="420" as="targetPoint" />
            <Array as="points">
              <mxPoint x="1030" y="720" />
              <mxPoint x="1150" y="720" />
              <mxPoint x="1150" y="420" />
            </Array>
          </mxGeometry>
        </mxCell>
        <mxCell id="CJaa9tunB96Toe59HpSa-8" value="Job Processor" style="whiteSpace=wrap;html=1;rounded=0;" vertex="1" parent="1">
          <mxGeometry x="910" y="680" width="120" height="60" as="geometry" />
        </mxCell>
        <mxCell id="CJaa9tunB96Toe59HpSa-13" value="receives card" style="endArrow=classic;html=1;rounded=0;entryX=0.805;entryY=0.966;entryDx=0;entryDy=0;entryPerimeter=0;exitX=0.863;exitY=-0.013;exitDx=0;exitDy=0;exitPerimeter=0;" edge="1" parent="1" source="CJaa9tunB96Toe59HpSa-4" target="CJaa9tunB96Toe59HpSa-2">
          <mxGeometry width="50" height="50" relative="1" as="geometry">
            <mxPoint x="1080" y="500" as="sourcePoint" />
            <mxPoint x="1130" y="450" as="targetPoint" />
            <Array as="points" />
          </mxGeometry>
        </mxCell>
        <mxCell id="CJaa9tunB96Toe59HpSa-14" value="20,000" style="text;html=1;align=center;verticalAlign=middle;whiteSpace=wrap;rounded=0;" vertex="1" parent="1">
          <mxGeometry x="1140" y="260" width="60" height="30" as="geometry" />
        </mxCell>
        <mxCell id="CJaa9tunB96Toe59HpSa-15" value="20,000" style="text;html=1;align=center;verticalAlign=middle;whiteSpace=wrap;rounded=0;" vertex="1" parent="1">
          <mxGeometry x="1140" y="310" width="60" height="30" as="geometry" />
        </mxCell>
      </root>
    </mxGraphModel>
  </diagram>
</mxfile>
